<?xml version="1.0" encoding="UTF-8" standalone="no"?>
<!-- Created with Inkscape (http://www.inkscape.org/) -->

<svg
   xmlns:dc="http://purl.org/dc/elements/1.1/"
   xmlns:cc="http://creativecommons.org/ns#"
   xmlns:rdf="http://www.w3.org/1999/02/22-rdf-syntax-ns#"
   xmlns:svg="http://www.w3.org/2000/svg"
   xmlns="http://www.w3.org/2000/svg"
   xmlns:sodipodi="http://sodipodi.sourceforge.net/DTD/sodipodi-0.dtd"
   xmlns:inkscape="http://www.inkscape.org/namespaces/inkscape"
   width="210mm"
   height="297mm"
   viewBox="0 0 744.09448819 1052.3622047"
   id="svg4142"
   version="1.1"
   inkscape:version="0.91 r13725"
   sodipodi:docname="chain-link.svg">
  <defs
     id="defs4144" />
  <sodipodi:namedview
     id="base"
     pagecolor="#ffffff"
     bordercolor="#666666"
     borderopacity="1.0"
     inkscape:pageopacity="0.0"
     inkscape:pageshadow="2"
     inkscape:zoom="0.7"
     inkscape:cx="-74.415554"
     inkscape:cy="377.20229"
     inkscape:document-units="px"
     inkscape:current-layer="layer1"
     showgrid="false"
     inkscape:window-width="1920"
     inkscape:window-height="1136"
     inkscape:window-x="0"
     inkscape:window-y="27"
     inkscape:window-maximized="1" />
  <metadata
     id="metadata4147">
    <rdf:RDF>
      <cc:Work
         rdf:about="">
        <dc:format>image/svg+xml</dc:format>
        <dc:type
           rdf:resource="http://purl.org/dc/dcmitype/StillImage" />
        <dc:title></dc:title>
      </cc:Work>
    </rdf:RDF>
  </metadata>
  <g
     inkscape:label="Layer 1"
     inkscape:groupmode="layer"
     id="layer1">
    <rect
       style="fill:none;stroke:none;stroke-width:0.97040898;stroke-miterlimit:4;stroke-dasharray:none;stroke-opacity:1"
       id="rect6040"
       width="564.31531"
       height="558.60101"
       x="-78.586235"
       y="88.061699"
       inkscape:export-filename="/home/public/Projects/g_data_binding_lib/src/gtk/data/chain-link-24.png"
       inkscape:export-xdpi="3.8299999"
       inkscape:export-ydpi="3.8299999" />
    <path
       style="fill:#000000;stroke:#000000;stroke-width:9.4;stroke-miterlimit:4;stroke-dasharray:none;stroke-opacity:1"
       d="m 204.28511,103.79102 c -51.28358,0 -92.85743,41.57384 -92.85743,92.85742 l 0,115.34375 c 10.49993,-14.06029 22.32357,-26.21571 35.56641,-36.03516 l 0,-75.0918 c 0,-41.0713 25.64986,-62.9375 57.29102,-62.9375 31.64116,0 57.29101,21.8662 57.29101,62.9375 l 0,151.56446 c 0,41.0713 -25.64985,60.08008 -57.29101,60.08008 -11.80912,0 -22.78041,-2.65113 -31.89844,-8.10547 -0.006,12.10776 -0.0151,24.27329 -0.0312,36.60937 9.95597,3.64561 20.71076,5.63477 31.92969,5.63477 51.28358,0 92.85742,-41.57384 92.85742,-92.85742 l 0,-157.14258 c 0,-51.28358 -41.57384,-92.85742 -92.85742,-92.85742 z"
       id="path4700"
       inkscape:connector-curvature="0"
       inkscape:export-filename="/home/public/Projects/g_data_binding_lib/src/gtk/data/chain-link-24.png"
       inkscape:export-xdpi="3.8299999"
       inkscape:export-ydpi="3.8299999" />
    <path
       inkscape:connector-curvature="0"
       id="path4726"
       d="m 204.28515,633.7913 c 51.28358,0 92.85743,-41.57384 92.85743,-92.85742 l 0,-115.34375 c -10.49993,14.06029 -22.32357,26.21571 -35.56641,36.03516 l 0,75.0918 c 0,41.0713 -25.64986,62.9375 -57.29102,62.9375 -31.64116,0 -57.29101,-21.8662 -57.29101,-62.9375 l 0,-151.56446 c 0,-41.0713 25.64985,-60.08008 57.29101,-60.08008 11.80912,0 22.78041,2.65113 31.89844,8.10547 0.006,-12.10776 0.0151,-24.27329 0.0312,-36.60937 -9.95597,-3.64561 -20.71076,-5.63477 -31.92969,-5.63477 -51.28358,0 -92.85742,41.57384 -92.85742,92.85742 l 0,157.14258 c 0,51.28358 41.57384,92.85742 92.85742,92.85742 z"
       style="fill:#000000;stroke:#000000;stroke-width:9.4;stroke-miterlimit:4;stroke-dasharray:none;stroke-opacity:1"
       inkscape:export-filename="/home/public/Projects/g_data_binding_lib/src/gtk/data/chain-link-24.png"
       inkscape:export-xdpi="3.8299999"
       inkscape:export-ydpi="3.8299999" />
  </g>
</svg>
